<svg xmlns="http://www.w3.org/2000/svg" viewBox="0 0 702 441"><defs><style>.a{fill:#0063b9;}.b{fill:#fff;}.c{fill:#b91f00;}.d{fill:#49a200;}.e{fill:#676868;}.f{fill:none;}</style></defs><title>test</title><path class="a" d="M556.89,534.93c-54.84-10.64-107.57-35.67-161.49-41.82,51.07-124.52,12.88-29.63-15.95-186.67,57.58-28.66,118.87-26.38,174.34-51.62C558.66,362.4,597.87,417.32,556.89,534.93Z" transform="translate(-325 -221)"/><path class="b" d="M449,470c-.22-1.21-.39-1.66-1-2.19s-1.08-1.08-1.75-1.1c.75-4.69-1,4.07.35-3.82s8.7-31.63,11.42-42.53a8,8,0,0,0-.5-2.43,9.56,9.56,0,0,0-1-2.61c-.41-.7-.78-1.08-1.19-1.73.11-.53.3-1.26.41-1.76,2.2-9.7,2.64-19.21,2.46-29.17-.08-4-.09-8.54.13-12.54a25.31,25.31,0,0,1,1.82-7.42,18.08,18.08,0,0,0,1.47-4.71,25.76,25.76,0,0,0-.42-6.33,32,32,0,0,1-.59-6.54c.09-1.72.3-3.32,1.71-4.62a3.92,3.92,0,0,1,1.31-.86,26.88,26.88,0,0,0-.36-5.2c-.66-4.86-.85-9.49,2-14,.38-.6,1.21-1.73,1.64-2.41.87.27,2,.6,2.78.88a84.89,84.89,0,0,1,13.84,6.26,11.46,11.46,0,0,0,1.17.52c.13.47.37,1,.47,1.43,3.63,15.13,1.74,28.15-.47,43.75-1.48,10.39-3,23.09-2.53,34,.37,1.13.7,1.88,1,3a22.78,22.78,0,0,1,.87,5,55,55,0,0,1-2.91,20.76c-2.67,7.43-6.68,13.17-9.17,20.4,17.2-1.5,31.37-11.83,48.94-10.6,6.26.44,10.57,2,16.08,4.13.87.35,1.62,1,2.49,1.37a10.74,10.74,0,0,0-.34,2.78,6.67,6.67,0,0,0,.94,2.18,15.58,15.58,0,0,1,1.85,4.75,7.25,7.25,0,0,1-1.5,5.5c-.34,1.65-.68,3.21-2,4.37a6.91,6.91,0,0,1-4.84,1.37c-.75,0-.77.36-1,.86-1.17-.3-3.28-.8-4.27-1s-1.42-.55-2-.69a4,4,0,0,0-1.27,0,7.82,7.82,0,0,1-1-.15,10.39,10.39,0,0,1-3.76-1.51c-.26-.15-.07,0-.25.16a7.36,7.36,0,0,1-3.26,1.33c-1-.83-1.73-2.1-2.69-2.81-.2-.15-.16-.09-.22,0-1.67,1.15-3.58.46-5.47.67a9.11,9.11,0,0,1-2.16.22,12.61,12.61,0,0,1-5.72,3.21,18.91,18.91,0,0,1-2.74.19c-15.41,9.12-27.93,11.42-45.11,5.4a6,6,0,0,1-.91-.4,8.72,8.72,0,0,1-.75-.72C449.64,473.44,449.17,471.23,449,470Z" transform="translate(-325 -221)"/><path class="c" d="M763.4,540.83c-74.63-11.34-119.37-37.27-189.17-4.07-43.65-97.15-11-187.3-13.47-292.37,62.43,4.37,137.26,18.51,197.55,11C769.53,359.8,768.15,437,763.4,540.83Z" transform="translate(-325 -221)"/><path class="b" d="M615.93,451.12a6.07,6.07,0,0,0-1.86-3.11c-1-.86-1.38-1.55-2.57-1.55.82-6.83-1.34,6.37.25-6.45s11-34.38,21.78-45.34a13.34,13.34,0,0,0,.56-2.78,9.25,9.25,0,0,0,0-2.87c-.17-.87-.45-1.33-.62-2.14.3-.42,1-1.24,1.24-1.6,5-7,10.62-14.14,11.67-22.94a105.64,105.64,0,0,0,.5-10.76c.05-2.31,1.11-3.79,1.46-5.83.25-1.48.75-2.47.47-4a26.62,26.62,0,0,0-2.1-6c-.93-2.09-2.48-4.64-3.24-6.81-.56-1.59-1-2.87-.21-4.3.21-.37.56-.45.92-.59a45,45,0,0,0-2.75-5.64c-2.61-4.74-4.66-9.58-4.52-15.27,0-.75.24-1.81.27-2.6.89.35,1.67.63,2.58,1A124.11,124.11,0,0,1,655.58,310a6.76,6.76,0,0,1,1.38.89,17.9,17.9,0,0,1,1.3,2c9.11,15.52,18.59,32.81,19.26,50.48.45,11.78-3.92,18.38-8.4,28-.18.94-.08,1.78-.28,2.9a16.46,16.46,0,0,1-1.42,4.58,136.45,136.45,0,0,1-12,18.69c-4.86,6.58-9.64,11.89-11.88,19.8,18.82,4.33,38.12,4.16,56.59,10.08,6.59,2.11,12.13,5.5,18.32,8.41,1,.46,1.85,1.36,2.82,1.88a8.12,8.12,0,0,0-.43,2.51,7.19,7.19,0,0,0,1,2.27,16,16,0,0,1,1.84,4.79,6.33,6.33,0,0,1-1.32,4.9c-.35,1.52-.41,2.92-1.88,3.83s-3.38.61-5,.29c-.72-.14-.74.09-1,.63-1.16-.52-3.21-1.37-4.21-1.77s-1.49-.82-2.11-1.09a4.79,4.79,0,0,0-1.28-.25,10.37,10.37,0,0,1-1.08-.38,21.24,21.24,0,0,1-4.35-2.55c-.31-.22-.05-.05-.26.1a5.66,5.66,0,0,1-3.19.59c-1.09-1.12-2.2-2.55-3.26-3.57-.23-.22-.19-.16-.26-.14-2,.66-3.72-.38-5.66-.77a11.25,11.25,0,0,1-2.28-.46c-1.71,1.16-2.87,2.14-5,2.33a14.28,14.28,0,0,1-2.74-.43c-19.32,9.64-38.45-1.6-56.63-9.88l-1.29-.65a15,15,0,0,1-1.17-1C617.81,455.74,616.53,452.83,615.93,451.12Z" transform="translate(-325 -221)"/><path class="d" d="M935.77,526.07c-55.27-8.21-118.44,7.42-179.4.73,8.87-88.74,3.73-177,11.15-263.72,68.08,2.55,130.1,23.77,196.71,32.19C954.42,370.52,940.33,451,935.77,526.07Z" transform="translate(-325 -221)"/><path class="b" d="M840.59,487.14c-18.25-5-26.2-15.25-31.8-31.86,0-.15.09-.28.06-.42s-.11-.13-.14-.21c-.56-1.74-.35-3-.6-4.9-2.38-18.71-6.13-37.13,1.15-55.29.69-1.7,2.13-2.49,3.54-3.47a47,47,0,0,0,.1-5.47c-.08-7.86-.4-15.62,6-21.6-.25-1.54-.57-3-.89-4.56l1.51-.79c2.33-1.22,3.09-3,4.62-5,2.36-3.06,4.61-5.56,8.84-6.2,0-2.53,1-4.37,3.25-5.4a5.07,5.07,0,0,0,2.61-1.88c.15-.2.28-.5.47-.71.41,0,1.05,0,1.44,0a18.74,18.74,0,0,1,2.29.39c.6.06,1,.5,1.41.31.92-.4.75-1,2.15-1.06a15,15,0,0,1,4.84.42,50.14,50.14,0,0,1,7.92,3.17,29.81,29.81,0,0,0,5,2.12c.83.24.85.06,1.41-.17s.87-.55,1.43-.77c.47.13,1.29.3,1.72.44,10.6,3.48,18.13,9.36,25.58,17.05.26-.2.65-.17.94-.28a1.69,1.69,0,0,1,.78-.12,4.07,4.07,0,0,0,1-.25c.33.14,1,.42,1.25.56a21.56,21.56,0,0,1,12.29,18.42,8,8,0,0,1-2,6.33c-2,2.61-4.1,2.32-7,1.92a4.86,4.86,0,0,1-1.28-.37c-4.3-2-6.91-6.11-9.6-9.75-1.34-1.81-3.71-4.8-4.9-6.11a9.66,9.66,0,0,0-2.83-2.43c-.9-.42-.69-.09-1.2,0s-.6.34-1.06.41c-.47-.14-.9-.22-1.38-.39a31.24,31.24,0,0,1-9.63-5.59c-1.2-.42-3.35-1.07-4.4-1.33a9.33,9.33,0,0,0-6.91.52c-.63.24-1.55.18-1.79,1,0,0,0,.14,0,.18a9.63,9.63,0,0,0,.4,2.54c-2.63.91,1.53-.26-2.64,1.13s-10.19,9-12,15.05c-4.24,13.89-9.29,24.42-9.84,40.69-.18,5.29-.35,19.81,1,26.82,1.29,6.61,3.11,13.74,11.19,14.6a4.75,4.75,0,0,0,2.11-.19c1-.23,1.91-.28,3.09-.5,9.32-1.73,18.43-3.36,27.1-7.55a19.69,19.69,0,0,0,2.55-1.89,25,25,0,0,1,4.13-3,7.2,7.2,0,0,1,3-.83c.34,0,.5.17.74.17a2,2,0,0,0,.49,0c.2,0,0,0,.25-.19.75-.54,1.35-1.16,2.19-1.84A36.69,36.69,0,0,1,901,442.82a6,6,0,0,1,2.62-.3,3,3,0,0,0,1.35,0c1.5-.46,2.3-.85,3.81-1.45,2.6-1,5.13-2,8.17-1.73a12.92,12.92,0,0,1,2.53.62,3.76,3.76,0,0,1,2.7,2.64c0,.22,0,.52.16.63s.09,0,.2,0c.12,1,.59,1.15.63,2.34.1,2.62-.81,4.28-3.79,6.08-1.32.79-3.91,2.19-6.22,3.27a37,37,0,0,0-8.3,4.56A141.85,141.85,0,0,1,879,475.85a6.54,6.54,0,0,1-1.51.34,4.89,4.89,0,0,0-1,.12,5.1,5.1,0,0,0-.8.58,32.55,32.55,0,0,1-6.36,3.48c-1.13.46-2.88,1.13-4.3,1.64-6.13,2.21-12.31,5-18.88,5.45A16,16,0,0,1,840.59,487.14Z" transform="translate(-325 -221)"/><path class="e" d="M381.93,567h15.2v71h-15.2Z" transform="translate(-325 -221)"/><path class="e" d="M421.13,618.36c.5,6.31,6.7,9.31,13.8,9.31a43.36,43.36,0,0,0,13.5-2l2,10.3a48.27,48.27,0,0,1-17.7,3c-16.6,0-26.1-9.6-26.1-24.91,0-12.4,7.7-26.1,24.7-26.1,15.8,0,21.8,12.3,21.8,24.4a36.11,36.11,0,0,1-.5,6ZM439,608c0-3.7-1.6-9.9-8.6-9.9-6.4,0-9,5.8-9.4,9.9Z" transform="translate(-325 -221)"/><path class="e" d="M479.23,575.06v14h10.9v11.2h-10.9V618c0,5.91,1.4,8.61,6,8.61a24.82,24.82,0,0,0,4.5-.4l.1,11.5c-2,.8-5.6,1.3-9.9,1.3-4.9,0-9-1.7-11.4-4.2-2.8-2.9-4.2-7.6-4.2-14.51v-20h-6.5v-11.2h6.5v-10.6Z" transform="translate(-325 -221)"/><path class="e" d="M498.83,624.67a29.71,29.71,0,0,0,13.1,3.7c4.6,0,6.5-1.6,6.5-4.11s-1.5-3.7-7.2-5.59c-10.1-3.41-14-8.91-13.9-14.71,0-9.1,7.8-16,19.9-16a32.81,32.81,0,0,1,13.8,2.8l-2.7,10.5a24,24,0,0,0-10.6-2.8c-3.7,0-5.8,1.5-5.8,4,0,2.3,1.9,3.5,7.9,5.6,9.3,3.2,13.2,7.9,13.3,15.11,0,9.1-7.2,15.8-21.2,15.8-6.4,0-12.1-1.4-15.8-3.4Z" transform="translate(-325 -221)"/><path class="e" d="M542.33,567h15.2v71h-15.2Z" transform="translate(-325 -221)"/><path class="e" d="M581.53,618.36c.5,6.31,6.7,9.31,13.8,9.31a43.36,43.36,0,0,0,13.5-2l2,10.3a48.27,48.27,0,0,1-17.7,3c-16.6,0-26.11-9.6-26.11-24.91,0-12.4,7.71-26.1,24.71-26.1,15.8,0,21.8,12.3,21.8,24.4a36.11,36.11,0,0,1-.5,6Zm17.9-10.4c0-3.7-1.6-9.9-8.6-9.9-6.4,0-9,5.8-9.4,9.9Z" transform="translate(-325 -221)"/><path class="e" d="M650.43,638l-.9-4.9h-.3c-3.2,3.9-8.2,6-14,6-9.9,0-15.81-7.2-15.81-15,0-12.71,11.41-18.81,28.71-18.71v-.7c0-2.6-1.4-6.3-8.9-6.3a27.5,27.5,0,0,0-13.5,3.7l-2.81-9.8c3.41-1.9,10.11-4.3,19-4.3,16.3,0,21.5,9.6,21.5,21.1v17a75.76,75.76,0,0,0,.7,11.9Zm-1.8-23.11c-8-.1-14.2,1.8-14.2,7.7,0,3.9,2.6,5.81,6,5.81a8.3,8.3,0,0,0,7.9-5.61,10.88,10.88,0,0,0,.3-2.59Z" transform="translate(-325 -221)"/><path class="e" d="M675.42,605.16c0-7.2-.2-11.9-.4-16.1h13.11l.5,9h.4c2.5-7.1,8.5-10.1,13.2-10.1a15.67,15.67,0,0,1,3.2.2v14.3a21.79,21.79,0,0,0-4.1-.4c-5.6,0-9.4,3-10.4,7.7a17.92,17.92,0,0,0-.3,3.4V638H675.42Z" transform="translate(-325 -221)"/><path class="e" d="M713.42,604.66c0-6.1-.2-11.3-.4-15.6h13.2l.7,6.7h.3a17.91,17.91,0,0,1,15.11-7.8c10,0,17.5,6.6,17.5,21v29h-15.2V610.86c0-6.3-2.2-10.6-7.71-10.6a8.11,8.11,0,0,0-7.7,5.7,10.46,10.46,0,0,0-.59,3.8V638H713.42Z" transform="translate(-325 -221)"/><path class="e" d="M770.92,629.87c0-5.41,3.7-9.31,9-9.31s8.9,3.81,8.9,9.31c0,5.3-3.6,9.2-9,9.2C774.62,639.07,770.92,635.17,770.92,629.87Z" transform="translate(-325 -221)"/><path class="e" d="M834.73,636.77c-2.7,1.2-7.81,2.2-13.6,2.2-15.81,0-25.91-9.6-25.91-25,0-14.3,9.8-26,28-26a35.32,35.32,0,0,1,11.61,1.9l-2.4,11.3a20.85,20.85,0,0,0-8.51-1.5c-8,0-13.2,5.7-13.1,13.7,0,9,6,13.71,13.4,13.71a23.67,23.67,0,0,0,8.71-1.5Z" transform="translate(-325 -221)"/><path class="e" d="M843.12,567h15.2v71h-15.2Z" transform="translate(-325 -221)"/><path class="e" d="M916.72,622.26c0,6.41.2,11.61.4,15.71h-13.2l-.7-6.9h-.3c-1.9,3-6.5,8-15.3,8-9.9,0-17.2-6.2-17.2-21.31v-28.7h15.3v26.3c0,7.1,2.3,11.41,7.6,11.41a8.17,8.17,0,0,0,7.6-5.31,8.47,8.47,0,0,0,.5-3.29V589.06h15.3Z" transform="translate(-325 -221)"/><path class="e" d="M928.52,638c.2-3.2.4-9.1.4-14.6V567h15.2v27.9h.2c2.9-4.2,8-6.9,14.8-6.9,11.7,0,20.3,9.7,20.2,24.7,0,17.61-11.2,26.41-22.4,26.41-5.7,0-11.2-2.1-14.7-7.9H942l-.6,6.8Zm15.6-20.81a11.1,11.1,0,0,0,.3,2.7,9.21,9.21,0,0,0,8.9,7.21c6.5,0,10.5-5,10.5-13.81,0-7.6-3.4-13.6-10.5-13.6a9.42,9.42,0,0,0-8.9,7.5,12.65,12.65,0,0,0-.3,2.8Z" transform="translate(-325 -221)"/><rect class="f" width="702" height="441"/></svg>